<?xml version="1.0" standalone="no"?>
<!DOCTYPE svg PUBLIC "-//W3C//DTD SVG 20010904//EN"
 "http://www.w3.org/TR/2001/REC-SVG-20010904/DTD/svg10.dtd">
<svg version="1.0" xmlns="http://www.w3.org/2000/svg"
 width="700.000000pt" height="700.000000pt" viewBox="0 0 700.000000 700.000000"
 preserveAspectRatio="xMidYMid meet">
<metadata>
Created by potrace 1.14, written by Peter Selinger 2001-2017
</metadata>
<g transform="translate(0.000000,700.000000) scale(0.100000,-0.100000)"
fill="#000000" stroke="none">
<path d="M0 3500 l0 -3500 3500 0 3500 0 0 3500 0 3500 -3500 0 -3500 0 0
-3500z m5540 1605 l0 -305 -2040 0 -2040 0 0 305 0 305 2040 0 2040 0 0 -305z
m-2300 -2170 l0 -1345 -302 2 -303 3 -3 1343 -2 1342 305 0 305 0 0 -1345z
m2300 1090 l0 -255 -590 0 -590 0 0 -310 0 -310 505 0 505 0 0 -255 0 -255
-505 0 -505 0 0 -520 0 -520 -300 0 -300 0 0 1340 0 1340 890 0 890 0 0 -255z"/>
</g>
</svg>
