<?xml version="1.0" standalone="no"?>
<!DOCTYPE svg PUBLIC "-//W3C//DTD SVG 20010904//EN"
 "http://www.w3.org/TR/2001/REC-SVG-20010904/DTD/svg10.dtd">
<svg version="1.0" xmlns="http://www.w3.org/2000/svg"
 width="700.000000pt" height="700.000000pt" viewBox="0 0 700.000000 700.000000"
 preserveAspectRatio="xMidYMid meet">
<metadata>
Created by potrace 1.14, written by Peter Selinger 2001-2017
</metadata>
<g transform="translate(0.000000,700.000000) scale(0.100000,-0.100000)"
fill="#000000" stroke="none">
<path d="M0 3500 l0 -3500 3500 0 3500 0 0 3500 0 3500 -3500 0 -3500 0 0
-3500z m5630 1795 l0 -335 -2130 0 -2130 0 0 335 0 335 2130 0 2130 0 0 -335z
m-2600 -2440 l0 -1485 -335 0 -335 0 0 1478 c0 813 3 1482 7 1485 3 4 154 7
335 7 l328 0 0 -1485z m2600 1195 l0 -280 -650 0 -650 0 0 -345 0 -345 555 0
555 0 0 -280 0 -280 -555 0 -555 0 0 -575 0 -575 -335 0 -335 0 0 1480 0 1480
985 0 985 0 0 -280z"/>
</g>
</svg>
